<?xml version="1.0" encoding="UTF-8"?>
<svg id="Layer_2" data-name="Layer 2" xmlns="http://www.w3.org/2000/svg" viewBox="0 0 432.58 395.86">
  <defs>
    <style>
      .cls-1 {
        fill: #bc1c20;
      }

      .cls-1, .cls-2, .cls-3, .cls-4, .cls-5, .cls-6, .cls-7, .cls-8, .cls-9, .cls-10, .cls-11, .cls-12, .cls-13, .cls-14, .cls-15, .cls-16, .cls-17, .cls-18, .cls-19, .cls-20, .cls-21, .cls-22, .cls-23, .cls-24, .cls-25, .cls-26, .cls-27, .cls-28, .cls-29, .cls-30, .cls-31, .cls-32, .cls-33, .cls-34, .cls-35 {
        stroke-width: 0px;
      }

      .cls-2 {
        fill: #c33414;
      }

      .cls-3 {
        fill: #dcdfe6;
      }

      .cls-4 {
        fill: #cb2c3e;
      }

      .cls-5 {
        fill: #f66923;
      }

      .cls-6 {
        fill: #ac6437;
      }

      .cls-7 {
        fill: #bf7544;
      }

      .cls-8 {
        fill: #f4ece8;
      }

      .cls-9 {
        fill: #252d38;
      }

      .cls-10 {
        fill: #5b141a;
      }

      .cls-11 {
        fill: #174359;
      }

      .cls-12 {
        fill: #655a63;
      }

      .cls-13 {
        fill: #1a1419;
      }

      .cls-14 {
        fill: #2a1a10;
      }

      .cls-15 {
        fill: #8a182e;
      }

      .cls-16 {
        fill: #e5e1d0;
      }

      .cls-17 {
        fill: #efaa74;
      }

      .cls-18 {
        fill: #4e4a57;
      }

      .cls-19 {
        fill: #443447;
      }

      .cls-20 {
        fill: #a40f20;
      }

      .cls-21 {
        fill: #7d401f;
      }

      .cls-22 {
        fill: #2e2425;
      }

      .cls-23 {
        fill: #38434e;
      }

      .cls-24 {
        fill: #924b2a;
      }

      .cls-25 {
        fill: #461e24;
      }

      .cls-26 {
        fill: #da3129;
      }

      .cls-27 {
        fill: #562c20;
      }

      .cls-28 {
        fill: #173346;
      }

      .cls-29 {
        fill: #965425;
      }

      .cls-30 {
        fill: #f8e0de;
      }

      .cls-31 {
        fill: #2b2d30;
      }

      .cls-32 {
        fill: #890d1a;
      }

      .cls-33 {
        fill: #341806;
      }

      .cls-34 {
        fill: #ebbfc8;
      }

      .cls-35 {
        fill: #e3461c;
      }
    </style>
  </defs>
  <g id="Layer_1-2" data-name="Layer 1">
    <g>
      <g>
        <path class="cls-23" d="M324.52,273.19c-2.81.43-26.37,3.59-26.5,2.25,2.85-4.04,2.39-6.4,2.5-6.75,2.29-7.06,5.55-13.98,8-21,2,2.18,4.91-6.61,6.5-10.75,2.63-6.82,20.49-56.85,21-59.99.15-.92.12-1.94-1-2.25,5.58-5.37,32.7-3.31,41.74-4.5,2.04,1.17,2.36,1.42,2.25,3.75-5.02,11.25-30.52,90.86-34,94.49-1.83,1.91-16.91,4.2-20.5,4.75Z"/>
        <path class="cls-12" d="M300.52,268.69c-.11.35.36,2.71-2.5,6.75.13,1.34,23.68-1.82,26.5-2.25l.5,1c-.42.02-4.68,1.65-8.25,2-21.12,2.09-41.51,2.44-62.74,2,6.75-1.68-1.58-.32,0-6.5.5-.07.56-.52,1-.5.04.64-.23,2.16.25,2.5h42.49c5.35-7.33-1.07-3.16-7.75-5h10.5Z"/>
        <path class="cls-15" d="M270.03,268.69c.83.04,1.67-.03,2.5,0,1,.04,2-.02,3,0,1.17.02,2.33-.01,3.5,0,3.67.04,7.33-.03,11,0,6.68,1.84,13.1-2.33,7.75,5h-42.49c-.48-.34-.21-1.86-.25-2.5-.07-.99.05-2,0-3,.17.01.33-.01.5,0,4.73.36,9.71.28,14.5.5Z"/>
        <path class="cls-19" d="M308.52,247.69c7.92-22.71,15.61-45.52,23.5-68.24,1.12-1.96,1.23-3.05,3-4.75,1.12.31,1.15,1.33,1,2.25-.51,3.14-18.37,53.17-21,59.99-1.59,4.14-4.5,12.93-6.5,10.75Z"/>
        <path class="cls-18" d="M252.53,271.69c.48-.07,1.01.07,1.5,0-1.58,6.17,6.75,4.82,0,6.5-3.26.81-52.51,1.12-60.49,1-1.35-.02-2.76.3-4-.5.68-.89,1.98-4.78,2.75-5,.73-.21,12.51.11,15.25,0,2.24-.09,4.61.71,8.25.5,4.45-.25,9.11-1.77,13.5-2,7.74-.4,15.5.61,23.25-.5Z"/>
      </g>
      <g>
        <path class="cls-31" d="M348.02,390.68c3.5,1.2,7.3,1.74,11,2,4.55.32,17.9.6,22.5.5.2.74-.47,1.03,1,2-12.37.35-24.63.39-37,.5v-.5c-.12-.75.18-2.14,0-2.5-.66-1.34-1.16-.81-1.5-1l4-1Z"/>
        <path class="cls-10" d="M412.01,393.68c-1.74.44-3.21.77-5,1-8.13,1.06-16.34.27-24.5.5-1.47-.97-.8-1.26-1-2,2.93-.06,8.28.43,8.5-2.5,7.25,5.03,13.61,2.78,22,3Z"/>
        <path class="cls-32" d="M326.02,274.19c-.27,1.63,5.08.4,10.25,3.5.64.31-.91,1.93-1,2-2.68,2.12-30.19,10.19-36.25,11.75,27.65,17.46,72.31,86.27,90.99,99.24-.22,2.93-5.57,2.44-8.5,2.5-.17-.62-.27-.92-.5-1.5-1.27-3.19-2.78-4.29-4-7-19.11-22.1-58.33-77.09-80.24-90.99-9.55-6.05-8.76-3.73-14.25-3.5-9.06.39-18.17,1.29-27.25,1.5-19.68.46-48.99-1.15-67.49,2.5-4.68.92-8.47,3.01-12.75,4.5-1.81.63-8.61,1.5-9,2.25-.96,1.87-.02,20.17,0,23.25.02,2.57-1.42,5.39,0,8-2.75.57-2.81-.36-4,2.5l.5-41.49c.86-.52.82-2.19,1-3,.83.11.08.97,1.25,1,3.39.09,31.09-4.1,25.5-10.5q13.5.25,27,.5-11.87-1-23.75-2c7.98.12,57.23-.19,60.49-1,21.23.44,41.63.09,62.74-2,3.57-.35,7.83-1.98,8.25-2,.33-.02.67,0,1,0Z"/>
        <g>
          <path class="cls-20" d="M48.56,166.7c-1.34,5.59-2.3,14.82-2,20.5-1,3.11-.38,6.75-.5,10-.95,26.45.05,33.15,2,57.99.13,1.68.36,3.35.5,5,.63,7.36,1.21,14.64,2,22,.11,1.02.4,2.09.5,3,.56,5.04,1.13,18.58,2,21.75.03.12,2.06,1.01,2,1.5-.07.54-1.5.83-1.5,1,.27,27.46.26,24.57,32.75,26.25,16.23.84,32.51.23,48.74.5.05,0-.16.99.25,1,8.57.14,17.17.02,25.75,0,.12,0,2.1,1,2.25,1,16.23-.24,46.84-4.74,65.49-6,4.15-.28,29.98-1.94,31.5-1.5.57.16,2.7,3.11,3.5,3.5.11.06,1.49-1.1,2.5-.5,4.11,2.45,30.9,29.66,40.99,37.5,8.51,6.6,17.87,12.29,27.5,17,.41.2,3.08.3,3.5.5.46.22.18.97.25,1-4.22,1.46-8.66,1.71-13,2.5-4.56.82-7.09-.43-5.75,3h25.75v.5c-101.06.88-202.15-1.85-303.21,0-1.3-.82-4.13-.38-7.25-1-4.55-.9-11.38-4.1-15-7-8.43-6.77-11.4-15.51-10.5-26,1.06-12.35,6.48-16.79,6.5-17.75,0-.52-3.41-6.74-4-9.5-2.3-10.83-7.83-80.23-9-97.49-.59-8.73-3.52-51.35-3-54.99,3.12-21.8,33.08-18.69,48.49-15.25Z"/>
          <path class="cls-26" d="M61.8,338.68c17.54-.19,35.01,1.44,52.49,1.5,20.71.07,131.85-1.96,138.98-.5,13.45,2.75,40.41,43.6,26,50.49-35.14-1.49-230.46,2.16-244.97-.5-18.23-3.34-25.17-24.36-16.75-39.74,2.09-3.82,8.96-9.99,13.25-10.75,3.54-.63,25.16-.44,31-.5Z"/>
          <path class="cls-26" d="M20.81,168.2c7.81-.6,13,5.74,14.25,12.75,1.12,6.28.55,38.16,1,49.49,1.29,32.33,3.1,64.66,4.5,96.99-12.04,3.08-12.74,1.64-22.75,10.25-1.49-20.17-13.55-148.98-12.25-156.73,1.07-6.33,9.09-12.27,15.25-12.75Z"/>
        </g>
        <path class="cls-32" d="M348.02,390.68l-4,1c-.97-.55-3.69-1.12-5.5-2-.07-.03.21-.78-.25-1-.42-.2-3.09-.3-3.5-.5-9.63-4.7-18.99-10.4-27.5-17-10.09-7.83-36.88-35.05-40.99-37.5-1.01-.6-2.38.56-2.5.5-.8-.39-2.93-3.33-3.5-3.5-1.51-.44-27.35,1.22-31.5,1.5-18.65,1.25-49.27,5.76-65.49,6-.15,0-2.13-1-2.25-1,1.55-.35.7-1.78,1-2.5,1.19-2.86,1.25-1.93,4-2.5,22.07-4.57,87.7-3.92,113.24-8,3.34-.53,14.26-5.28,3.5,1-1.58.92-13.83,5.99-13.75,6.75,18.94,14.91,37.29,35.4,57.74,47.74,2.77,1.67,19.36,10.35,21.25,11Z"/>
        <path class="cls-4" d="M325.52,392.18q10,.25,20,.5c.18.36-.12,1.75,0,2.5h-25.75c-1.35-3.43,1.19-2.18,5.75-3Z"/>
        <path class="cls-34" d="M344.02,391.68c.34.19.84-.34,1.5,1q-10-.25-20-.5c4.34-.79,8.78-1.04,13-2.5,1.81.88,4.53,1.45,5.5,2Z"/>
        <g>
          <path class="cls-20" d="M413.51,235.2c7.29-6.32,9.55-12.78,15.5-17.75l-16.5-9c.72-4.06,12.66-13.72,13-15.5,1.06-5.5-7.18-9.3-12.5-5-15.21,46.29-21.82,68.09-21.5,118.48,2.48,3.89,2.56-3.38,4-7,2.66-6.69,6.73-12.88,9-19.75,2.32.37,6.98.37,8,2.25,3.55,13.38-11.85,19.01-16.5,29.5,13.85-1.1,7.77,3.3,9,22-3.43,1.16-21.06-1.23-21,1.5,8.47,12.48,18.48,23.63,28,35.25,5.16,6.3,13.68,14.63,11.5,17.5-1.15,2.83-8.56,5.25-11.5,6-8.39-.22-14.75,2.03-22-3-18.68-12.97-63.34-81.78-90.99-99.24,6.06-1.56,33.57-9.63,36.25-11.75.09-.07,1.64-1.69,1-2-5.17-3.1-10.51-1.87-10.25-3.5,19.68-.38,40.06,37.15,50.99,51.49.86,1.13,1.62,2.41,2.5,3.5,1.41,1.74,2.6,4.27,3.75,4.5,1.03.21,17.34-1.18,21-.5.51-.36.18-3.18.25-4,.42-5.22.42-17.97-1.5-15q-12.5-.25-25-.5c.93-4.05,6.41-.94,11-2.25-3.12-5.5-15.84-24.7-14-30,.45-1.29,3.81-2.12,4-2.25l9.5,22.25c-1.55-7.03,3.71-47.12,3-49.49-.26-.87-14.54-13.7.25-1.75,3.23-6.79-.84-9.82-8.75-18-.52-2.56,6.91,5.47,9.75,9,1.18.18,2.98-5.23,1.5-7.5-.3-.46-7.96-6.89-8.5-7-2.22-.47-5,.91-7.25,1-1.18.05-1.52-.41-2.5-.5,4.1-6.67,7.72-7.32,15-4.5-1.61,1.71,2.9,5.37,5.25,9.5,3.23-5.42-.19-5.61-1.25-8-4.3-9.68-5.23-11.1-2-21.5.42,4.59,5.2,10.84,8,14.75,3.92-12.04,9.11-23.85,10.5-36.5l-1.5-.75c13.66-5.23,31.83,13.05,10.5,24.25-.03,1.11,6.41,1.23,8.25,2.25,7.02,3.88,5.71,27.97-15.25,28.5Z"/>
          <path class="cls-26" d="M395.01,224.2c1.06,2.39,4.48,2.58,1.25,8-2.35-4.13-6.86-7.79-5.25-9.5,1.32.51,2.55,1.44,4,1.5Z"/>
          <path class="cls-26" d="M383.01,232.2c-1.45-1.5-3.39-2.64-4.5-4.5,2.25-.09,5.03-1.47,7.25-1,.54.11,8.2,6.54,8.5,7,1.48,2.27-.32,7.68-1.5,7.5-2.84-3.53-10.27-11.55-9.75-9Z"/>
          <path class="cls-30" d="M396.76,305.19c.85.39-2.81,7.15-4,7-1.33-.17,0-4.76,4-7Z"/>
        </g>
        <path class="cls-20" d="M377.01,384.68c1.22,2.71,2.73,3.8,4,7-2.22-.73-2.39-4.79-4.75-5-.91-.08-14.72,5.5-17.25,6-3.7-.26-7.49-.8-11-2-1.89-.65-18.48-9.33-21.25-11-20.45-12.34-38.81-32.83-57.74-47.74-.08-.76,12.17-5.83,13.75-6.75,10.76-6.28-.16-1.53-3.5-1-25.54,4.08-91.17,3.43-113.24,8-1.42-2.61.02-5.43,0-8,38.86-1.65,77.87-6.63,116.74-3.5.71-.27,6.19-12.57,7.5-11.5-.28,5.04,3.76,6.49,3.25,8.75-.23,1-13.71,14.49-13.5,15.5,15.06,12.94,29.42,27.32,45.74,38.75,10.59,7.41,22.19,13.29,33.5,19.5l17.75-7Z"/>
        <path class="cls-23" d="M381.01,391.68c.23.58.33.88.5,1.5-4.6.1-17.95-.18-22.5-.5,2.53-.5,16.34-6.08,17.25-6,2.36.21,2.53,4.27,4.75,5Z"/>
        <path class="cls-32" d="M193.54,279.19q11.87,1,23.75,2-13.5-.25-27-.5c5.59,6.4-22.11,10.59-25.5,10.5-1.17-.03-.42-.89-1.25-1,.09-.39.79-1.04.5-3,7.14-1.23,20.01-1.71,24.5-7,.5-.59.64-1.03,1-1.5,1.24.8,2.65.48,4,.5Z"/>
        <path class="cls-20" d="M377.01,384.68l-17.75,7c-11.3-6.2-22.91-12.09-33.5-19.5-16.33-11.42-30.68-25.8-45.74-38.75-.21-1.01,13.27-14.5,13.5-15.5.51-2.26-3.53-3.71-3.25-8.75-1.31-1.07-6.79,11.23-7.5,11.5-38.87-3.13-77.87,1.85-116.74,3.5-.02-3.08-.96-21.37,0-23.25.39-.75,7.19-1.62,9-2.25,1.72,1.39,9.28-.31,14.25-.5,31.34-1.21,64.44,4.28,94.24-7.25l-1-.75c5.49-.24,4.7-2.55,14.25,3.5,21.91,13.9,61.13,68.89,80.24,90.99Z"/>
        <path class="cls-20" d="M282.53,290.19l1,.75c-29.8,11.53-62.9,6.04-94.24,7.25-4.97.19-12.53,1.89-14.25.5,4.28-1.49,8.07-3.57,12.75-4.5,18.5-3.65,47.81-2.04,67.49-2.5,9.08-.21,18.18-1.11,27.25-1.5Z"/>
      </g>
      <g>
        <path class="cls-26" d="M413.51,235.2c-.08.07-.72-.04-1.25,0-1.23,1.53,1.65.74,2.75,1,.03.97.61,1.28.5,2.5-.04.46-1.94,6.19-2.5,8-1.06,3.4-2.3,7.45-3.5,10.75-.11.31-3.14,2.18,0,1.25,2.43.13,4.41,1.45,6.5,2.5-1.92,6.1-6.78,10.97-10,16.5-5.72,1.87-5.61,1.35-1.5,2-2.27,6.86-6.34,13.06-9,19.75-1.44,3.62-1.51,10.89-4,7-.33-50.39,6.29-72.19,21.5-118.48,5.32-4.3,13.55-.51,12.5,5-.34,1.78-12.27,11.44-13,15.5l16.5,9c-5.95,4.97-8.2,11.43-15.5,17.75Z"/>
        <path class="cls-26" d="M378.51,227.7c1.11,1.86,3.05,3,4.5,4.5,7.91,8.18,11.98,11.21,8.75,18-14.79-11.95-.51.88-.25,1.75.71,2.38-4.55,42.47-3,49.49l-9.5-22.25c.9-.61,2.05-.54,2-1.5-.09-1.85-7.65-14.08-6-19.5,1.57-2.02,3.26-2.01,3-3.75-.22-1.47-12.58-10.01-2-27.25.98.09,1.32.55,2.5.5Z"/>
        <path class="cls-26" d="M393.01,202.7c2.07-6.67,10.23-19.9,17-22.5l1.5.75c-1.38,12.64-6.57,24.46-10.5,36.5-2.8-3.9-7.58-10.16-8-14.75Z"/>
        <path class="cls-1" d="M409.51,258.69c-3.14.93-.11-.94,0-1.25,1.2-3.3,2.44-7.35,3.5-10.75,13.99,5.46,13.27-3.19,2.5-8,.11-1.22-.47-1.53-.5-2.5,7.09,1.68,15.82,2.34,13,13.25-2.23,8.64-12.06,7.07-18.5,9.25Z"/>
        <path class="cls-1" d="M406.01,277.69c3.22-5.52,8.08-10.4,10-16.5.24.12,2.73.23,5,2.25-1.44,12.24-6.71,11.54-15,14.25Z"/>
        <path class="cls-1" d="M381.01,277.69c-2.92-2.5-8.7-5.04-9.5-9.25-1.35-7.14,2.64-9.14,3.5-10.25-1.65,5.41,5.91,17.65,6,19.5Z"/>
        <g>
          <path class="cls-26" d="M404.51,329.18h-25c-.88-1.09-1.64-2.37-2.5-3.5,1.82-.46.7-5.02,1-9.5,1.97-.4.38,3.38,1.25,4,.92.65,21.58.65,22.5,0,.85-.59-.7-4.13,1.25-6,1.92-2.97,1.92,9.78,1.5,15Z"/>
          <path class="cls-26" d="M403.01,314.19c-1.95,1.87-.4,5.4-1.25,6-.92.65-21.58.65-22.5,0-.87-.62.72-4.4-1.25-4,.06-.86-.14-1.91,0-2.5q12.5.25,25,.5Z"/>
          <path class="cls-26" d="M404.51,329.18c-.07.82.26,3.64-.25,4-3.66-.68-19.97.71-21,.5-1.15-.23-2.34-2.76-3.75-4.5h25Z"/>
        </g>
        <path class="cls-26" d="M413.01,246.69c.56-1.81,2.46-7.54,2.5-8,10.77,4.81,11.49,13.46-2.5,8Z"/>
      </g>
      <g>
        <g>
          <path class="cls-13" d="M157.04,49.72c-.1-.25-.02-2.34-1.25-3-.97-.52-11.19-.41-20-8.5,1.24,22.78-15.28,19.36-16.75,21.25-.63.81-.09,9.37-8.75,18.25-3.98,1.65.71-16.41-11.5-15.5-7.52,4.75-2.36,14.61-2.25,17.5.02.46-.81,8.82-1,9.25-.65,1.47-6.51.45-8,.75-1.88-6.24-30.51-50.26-8.5-64.49,2.19,1.11,3.88-1.13,5.75-1,.79.05,7.8,2.53,15.5,3,15.44.94,30.06-6.3,33,11.5,3.34-3.01,6.79,2.23,11,4,8.41,3.53,15.53,2.43,12.75,7Z"/>
          <path class="cls-13" d="M134.54,5.72c3.1,1.73,5.16.85,7.5,1.5.92,2.03,8.31,1.51,9,4.75-15.85,10.32-45.51,12.11-63.74,7.25l-.25-1.25c12.37-14.27,30.65-10.31,47.49-12.25Z"/>
          <g>
            <path class="cls-13" d="M134.54,5.72c-16.84,1.94-35.12-2.03-47.49,12.25l.25,1.25c18.24,4.86,47.9,3.07,63.74-7.25-.69-3.24-8.08-2.72-9-4.75,17.82,4.98,12.12,8.71,14.75,10.5.33.22,4.84.69,5.5,1,19.21,9.03,14.47,29.91-3.25,37.5-.05-.34-1.72-5.79-2-6.5,2.78-4.57-4.34-3.47-12.75-7-4.21-1.76-7.66-7.01-11-4-2.93-17.8-17.55-10.56-33-11.5-7.7-.47-14.71-2.95-15.5-3-1.87-.13-3.56,2.11-5.75,1,1.9-1.23,4.19-.81,4.5-1.75.27-.83-3.41-7.84,6.75-14.75,11.01-7.49,20.88-4.69,22-5,.64-.18,1.1-4.78,12-3.5,7.7.91,9.73,5.21,10.25,5.5Z"/>
            <path class="cls-13" d="M133.54,26.72c3.5-.25,9.65,3.62,13.75,4,5.17.47,16.15-1.6,19.75-6,3.67,3.17,3.76,4.65,3.5,9.75-10.04,8.51-33.31,6.15-37-7.75Z"/>
            <path class="cls-22" d="M167.04,24.72c-3.6,4.4-14.58,6.47-19.75,6-4.1-.38-10.25-4.25-13.75-4-1.74-6.56-.08-1.91,11.25-4,7.44-1.37,11.97-6.88,22.25,2Z"/>
          </g>
        </g>
        <path class="cls-3" d="M263.03,263.69c1.73,2.09,1.69,4.46,3.25,4,1.21-.92-1.9-5.92,1.25-7.5.06.14-.06.36,0,.5,1.04,2.58,1.69,5.34,2.5,8-4.78-.22-9.77-.14-14.5-.5.43-2.16-1.9-3.71-3.5-5l-1.5-4c.86.18,6.35.17,7.5-1,1.62,1.89,3.41,3.58,5,5.5Z"/>
        <g>
          <path class="cls-17" d="M279.03,268.69c-1.17-.01-2.33.02-3.5,0-4.14-11.49-6.31-14.56-3,0-.83-.03-1.67.04-2.5,0-.81-2.65-1.46-5.42-2.5-8,7.96-2.67-7.73-11.88-8.5-10.25,4.82,3.83,5.96,4.03,8.5,9.75-3.15,1.57-.04,6.58-1.25,7.5-1.56.46-1.52-1.9-3.25-4,1.2-3.22-2.83-8.49-5.75-9.5-5.97-2.06-1.1,1.84.75,4-1.15,1.17-6.64,1.18-7.5,1-.78-.16-3.94-2.57-5-3,.51-2.96-8.69-4.39-12.5-6,15.74-15.71,44.09-2.77,45.99,18.5Z"/>
          <path class="cls-21" d="M245.53,256.19c1.06.43,4.22,2.84,5,3l1.5,4c-.24-.19-.71.53-.75.5-3.45-2.78-6.81-6.17-9.75-9.5,1.4.55,2.58,1.43,4,2Z"/>
          <path class="cls-7" d="M267.53,260.69c-.06-.14.06-.36,0-.5-2.54-5.72-3.68-5.92-8.5-9.75.77-1.63,16.46,7.58,8.5,10.25Z"/>
          <path class="cls-24" d="M263.03,263.69c-1.59-1.92-3.38-3.6-5-5.5-1.85-2.16-6.72-6.06-.75-4,2.92,1,6.95,6.28,5.75,9.5Z"/>
          <path class="cls-8" d="M275.53,268.69c-1-.02-2,.04-3,0-3.31-14.56-1.14-11.49,3,0Z"/>
        </g>
        <g>
          <g>
            <g>
              <path class="cls-7" d="M107.05,107.71c3.39,4.26,7.74,8.71,13.5,10-.28,1.15.07,7.11-.5,10-.52,2.66-1.56,2.87-2,4.5-1.12-.37-15.77-12.04-19-14-2.83-5.09-8.32-12.63-10-18-1.35-4.3-1.16-9.38-1.5-10.5,1.49-.3,7.34.72,8-.75.19-.42,1.02-8.78,1-9.25,8,5.16,2.84,7.53,4,16.25.61,4.58,3.74,8.28,6.5,11.75Z"/>
              <path class="cls-17" d="M99.05,118.21c-2.79-1.69-10.22-5.78-13-7l3-11c1.68,5.37,7.17,12.91,10,18Z"/>
            </g>
            <g>
              <path class="cls-17" d="M157.04,49.72c.28.71,1.95,6.16,2,6.5.08.52.02,8.4,0,10.5-2.1.29-2.17,4.16-.5,5-.2,2.04-.81,4.05-1,6-2.04.88-.52,2.58-.5,3,.38,9.88-1.53,12.25-2.5,16.5-3.65-5.76-4.23-1.38-.5,4-.4,1.39-1.01,2.65-1.5,4-7.17-4.29-6.3-2.84-1,2.5-6.93,16.98-14.32,18.16-30.5,9.5-.07-.04.25-.94-.75-1.5-4.55-2.56-9.18-4.59-13.25-8-2.76-3.47-5.89-7.17-6.5-11.75-1.16-8.72,4-11.08-4-16.25-.11-2.89-5.27-12.75,2.25-17.5,12.21-.92,7.52,17.14,11.5,15.5,8.66-8.87,8.12-17.44,8.75-18.25,1.47-1.88,17.99,1.53,16.75-21.25,8.81,8.09,19.03,7.98,20,8.5,1.23.66,1.15,2.75,1.25,3Z"/>
              <g>
                <path class="cls-6" d="M121.05,117.21c.05.62-.49.47-.5.5-5.76-1.29-10.11-5.74-13.5-10,4.07,3.41,8.7,5.44,13.25,8,1,.56.68,1.46.75,1.5Z"/>
                <path class="cls-29" d="M154.54,97.21c-.38,1.69-.4,3.63-.5,4-3.73-5.38-3.15-9.76.5-4Z"/>
                <path class="cls-6" d="M152.54,105.21c-.32.89-.65,1.63-1,2.5-5.3-5.34-6.17-6.79,1-2.5Z"/>
                <path class="cls-14" d="M158.54,71.72c-1.67-.84-1.6-4.71.5-5,0,.43,1.16,1.32,1,3.25-.07.86-1.49,1.64-1.5,1.75Z"/>
                <path class="cls-33" d="M157.04,80.72c-.02-.42-1.54-2.11.5-3-.03.28,1.56,2.12-.5,3Z"/>
                <path class="cls-14" d="M136.79,64.72c5.5-.75,13.94,3.13,11,6.5-5.29-4.39-13.73-2.15-14.5-2.5-2.37-2.07,1.77-3.76,3.5-4Z"/>
                <path class="cls-21" d="M100.3,68.22h1.5c3.36,5.01-3.54-3.16,0,10-1.22.67-5.92-6.16-1.5-10Z"/>
                <path class="cls-14" d="M137.29,77.72c11.53-.53,8.76,7.27-.75,1.25l.75-1.25Z"/>
              </g>
            </g>
          </g>
          <g>
            <path class="cls-17" d="M241.53,254.19c2.94,3.33,6.3,6.72,9.75,9.5.04.03.51-.69.75-.5,1.6,1.29,3.93,2.84,3.5,5-.17-.01-.33.01-.5,0-.23-.02-2.42-1.83-4.25-2-21.11-1.91-18.47,1.15,1.75,5.5-7.75,1.11-15.5.1-23.25.5-4.39.23-9.05,1.75-13.5,2-3.64.21-6.01-.59-8.25-.5-14.88-3.91-14.98-1.82-20.75-17.5,13.6.6,27.04-5.83,28.5-6,4.38-.51,9.25,1.43,13.5,2,5.63.75,4.74-1.16,12.75,2Z"/>
            <path class="cls-16" d="M255.03,268.19c.05.99-.07,2.01,0,3-.44-.02-.5.43-1,.5-.48.07-1.02-.07-1.5,0-20.22-4.35-22.86-7.41-1.75-5.5,1.83.17,4.02,1.98,4.25,2Z"/>
          </g>
        </g>
        <g>
          <path class="cls-22" d="M86.05,111.21c2.78,1.22,10.2,5.31,13,7,3.23,1.95,17.88,13.63,19,14,2.36.77.94-1.65,2.25-2,2.02-.53,21.94,13.26,22.75,18,.9,3.3,1.4,6.68,2.5,10l-2.5-.5c-.31-.7-.7-2.44-1-3-3.11-5.87-12.26-13.52-18.25-17l-.75.75c3.11,3.31,4.22,7.76,6,11.75.06.14-.06.36,0,.5l-1-.75c-2.65,2.53,3.76,15.42,2,19.25-.07-.29.07-.71,0-1-2.95-11.95-2.63-19.01-11-29.25-13.24-16.19-44.36-29.52-64.99-32.75.55-.93.88-2.17,1-3.25,1.81-1.71,27.24,6.6,31,8.25Z"/>
          <path class="cls-5" d="M177.54,228.2q-4.87,8.5-9.75,17-1.62-6.12-3.25-12.25c-.82-.91-1.29,1.08-2.5,2.25-.31-5.96,3.81-11.38,8.5-15.5.52.93,6.19,6.42,7,8.5Z"/>
          <path class="cls-27" d="M145.54,158.21c3.1,9.37,8.01,18.84,10.5,28.5,1.94,7.52,3.38,15.75,4,23.5l-1.25,4.5c-1.67.32-.91-.62-1.75-2.5-1.99-15.37-7.91-40.72-14-54.49l2.5.5Z"/>
          <path class="cls-5" d="M168.54,214.7c-3.94,2.6-5.79,9.6-7.5,6.5.05-.86-.75-7.86-1-11-.62-7.74-2.06-15.98-4-23.5,4.73,9.09,7.66,18.94,12.5,28Z"/>
          <path class="cls-26" d="M178.04,233.7c-.2,1.35-7.5,13.69-8.25,14-1.34.55-6.72-2.19-8.25-2.5,1.67-3.56-1.59-3.26-3-7,1.86-.51,2.49-2.03,3.5-3,1.2-1.17,1.68-3.16,2.5-2.25q1.62,6.12,3.25,12.25,4.87-8.5,9.75-17c.23.59.6,4.8.5,5.5Z"/>
          <path class="cls-35" d="M170.54,219.7c-4.69,4.11-8.81,9.54-8.5,15.5-1.01.97-1.64,2.49-3.5,3-1.59-4.2,1.09-7.14,1.5-11.25.71-7.22.98-5.44,1-5.75,1.71,3.11,3.56-3.9,7.5-6.5,1.17,2.19,1.55,4.2,2,5Z"/>
          <path class="cls-35" d="M143.04,148.21c-.81-4.74-20.73-18.53-22.75-18-1.31.35.11,2.77-2.25,2,.44-1.63,1.48-1.84,2-4.5,4.72,3.6,19.57,9.41,22,14.25.99,1.97.92,5.94,1,6.25Z"/>
          <path class="cls-26" d="M115.55,232.7c.81-.08,2.85-.52,3-.5.32.04,2.93,1.1,3,1.25-.17,2.01-1.56.35-3.25.75-17.73,4.23-39.58,6.71-47.24,21.75,7.32,8.14,14.95,16.2,24.5,21.75-10.04-2.18-18.05-9.57-27-14,2.08-4.58-1.05-4.31-3-7.75-7.95-14.04-13.62-29.22-18-44.74-.11-4.58-.35-9.53-1.5-14,.12-3.25-.5-6.88.5-10,1,18.67,11.29,49.1,22.25,64.99.95.2,6.79-7.56,15.5-11.5,4.49-2.03,26.6-7.57,31.25-8Z"/>
          <path class="cls-5" d="M68.05,270.69c7.85,5.35,14.1,13.23,23,17-13.53-1.68-27.09-2.92-40.49-5.5-.79-7.36-1.37-14.63-2-22,6.01,2.7,14.14,6.85,19.5,10.5Z"/>
          <path class="cls-5" d="M47.56,211.2c.11,4.79-.73,9.33,0,14.25,1.64,11.09,10.8,31.51,20.5,38.25-.13-.07-.37.07-.5,0-6.31-3.08-13.17-5.4-19.5-8.5-1.95-24.85-2.95-31.54-2-57.99,1.15,4.47,1.39,9.42,1.5,14Z"/>
          <path class="cls-26" d="M91.05,287.69c4.32.54,8.59,1.74,13,1.5.31,1.31-1.23,3.7-1.5,5q-25.75-4.5-51.49-9c-.1-.91-.39-1.98-.5-3,13.41,2.58,26.97,3.82,40.49,5.5Z"/>
          <path class="cls-26" d="M67.55,263.69c-.07,2.15.04,4.76,1.5,6.5l-1,.5c-5.36-3.65-13.49-7.8-19.5-10.5-.14-1.65-.37-3.31-.5-5,6.33,3.1,13.18,5.42,19.5,8.5Z"/>
          <path class="cls-35" d="M118.55,232.2c-.15-.02-2.18.42-3,.5-2.32-9.14-7.7-23.15-8.5-31.75-1.32-14.21,4.24-30.81-2.25-49.74,16.1,23.74,7.78,41.1,9.25,58.74.5,5.95,3.87,15.69,4.5,22.25Z"/>
          <path class="cls-1" d="M68.55,263.69c8.95,4.43,16.95,11.81,27,14,3.39,1.97,6.83,3.63,10.5,5,.95.36,2.02.68,3,1-.61,2.53-1.59,6.49-.75,6.5q7.12,2.25,14.25,4.5c-.64.42-1.66,1-1.5,2-6.59-.59-14.55-2.33-15.25-2-.55.26-5.84,11.84-3.25-.5.27-1.3,1.81-3.69,1.5-5-.25-1.04-14.26-7.14-16.75-8.5-2.37-1.29-17.57-9.69-18.25-10.5-1.46-1.74-1.57-4.35-1.5-6.5.13.07.37-.07.5,0,.13.07.37-.07.5,0Z"/>
          <path class="cls-35" d="M137.04,203.7c.82,7.36,1.66,15.37,2,22.75.27,5.86-.88,14.6,1,14.75-.06-.02-.17,1.01-1.25.5-1.51-.7,1.16-3.54-9.25-3-.33.02-.67,0-1,0,1.07-1.62,1.83.03,2-.75.19-.86-1.46-1.66-1.5-2-.53-5.08,2.29-14.63,2.5-20,.37-9.47-2.76-18.54-.5-22.75,1.91,6.96,1.95,13.99,6,10.5Z"/>
          <path class="cls-35" d="M130.05,168.2c.07.29-.07.71,0,1,1.07,4.39,2.61,8.84,3.5,13.25.14.7-.64.8-.5,1.5.1.49,3.55,6.8,2,9,1.92,1.56,1.66,7.72,2,10.75-4.05,3.5-4.09-3.54-6-10.5-.72-2.62-5.3-20.2-5-21.25.38-1.33,2.06-.53,2.75-1.25.73-.76-.51-2.84,1.25-2.5Z"/>
          <path class="cls-26" d="M129.55,238.7c-4.74,11.92-17.99,34.52-20.5,44.99-.98-.32-2.05-.64-3-1,5.13-11.15,16.51-34.93,22.5-43.99.33,0,.67.02,1,0Z"/>
          <g>
            <path class="cls-5" d="M130.05,168.2c-1.76-.34-.52,1.74-1.25,2.5-.69.72-2.36-.08-2.75,1.25-.3,1.05,4.28,18.63,5,21.25-2.26,4.2.87,13.27.5,22.75-.21,5.37-3.03,14.92-2.5,20,.04.34,1.69,1.14,1.5,2-.17.78-.93-.87-2,.75-5.98,9.07-17.37,32.84-22.5,43.99-3.67-1.37-7.11-3.03-10.5-5-9.55-5.55-17.18-13.61-24.5-21.75,7.67-15.04,29.52-17.52,47.24-21.75,1.69-.4,3.08,1.26,3.25-.75-.07-.15-2.68-1.21-3-1.25-.63-6.55-4-16.29-4.5-22.25-1.47-17.64,6.85-35.01-9.25-58.74,6.49,18.93.93,35.53,2.25,49.74.8,8.6,6.18,22.6,8.5,31.75-4.64.43-26.76,5.97-31.25,8-8.71,3.94-14.55,11.7-15.5,11.5-10.95-15.89-21.25-46.32-22.25-64.99-.3-5.68.65-14.91,2-20.5,2.91-12.09,9.85-21.33,20-28.5,12.57-1.83,28.44-6.12,41.49,10,7.13,8.8,10.89,28.23,10,17.25-.06-.74-1.78-3.2,0-2.75,5.25,23.24,5.63,47.64,3,71.24h3.5c1.21-20.93,2.07-54.87-4-74.49-.93-3.01-4.42-11.66-7-11.25-3.74-6.56-16.43-13.75-23.75-15-8.39-1.43-24.87.63-33.5,2.5-1.11.24-4.55,1.06-4.25,2-7.77-6.13-4.38-24.05,0-31.5,20.63,3.22,51.75,16.55,64.99,32.75,8.37,10.24,8.05,17.3,11,29.25Z"/>
            <g>
              <path class="cls-26" d="M115.55,148.21c.34.6.45.29,1,1.5-1.58.17-2.09-1.96-2.25-2-.21-.05-1.77.84-4.25.5-13.06-16.12-28.93-11.83-41.49-10-4.96.72-9.79,3.22-14.5-.5-.3-.94,3.14-1.76,4.25-2,8.63-1.87,25.11-3.93,33.5-2.5,7.31,1.25,20.01,8.44,23.75,15Z"/>
              <path class="cls-27" d="M120.05,162.7c-.67-2.95-2.51-10.83-3.5-13-.55-1.21-.66-.9-1-1.5,2.58-.41,6.07,8.23,7,11.25,6.07,19.62,5.21,53.56,4,74.49h-3.5c2.63-23.6,2.25-48-3-71.24Z"/>
              <path class="cls-35" d="M116.55,149.71c.99,2.17,2.83,10.05,3.5,13-1.78-.45-.06,2,0,2.75.89,10.98-2.87-8.45-10-17.25,2.48.34,4.04-.55,4.25-.5.16.04.67,2.16,2.25,2Z"/>
              <path class="cls-2" d="M121.8,234.7l-32.5,33c8.62-12.97,20.95-22.81,32.5-33Z"/>
              <path class="cls-35" d="M99.3,224.7c2.77-.04,5.06-.31,4,1q-17.62,1.87-35.25,3.75c10.22-2.16,20.77-4.58,31.25-4.75Z"/>
              <path class="cls-35" d="M90.3,206.7v1c-32.49,3.27-33.73,1.23,0-1Z"/>
              <path class="cls-35" d="M69.8,162.2c18.37.87,18.91,1.01,0,1v-1Z"/>
              <g>
                <path class="cls-35" d="M82.3,175.2c7.65-.36.79,1.27-5,2-8.61,1.08-29.72,2.01-9-1,4.67.15,9.36-.78,14-1Z"/>
                <path class="cls-35" d="M78.3,192.2c1.35-.05,10.33-.05,8.5,1l-22.75.75c4.58-.74,9.63-1.59,14.25-1.75Z"/>
                <path class="cls-35" d="M88.3,192.2l4.75.25c-3.74.63-6.67.76-4.75-.25Z"/>
                <path class="cls-35" d="M59.8,179.2c1.87,2.3.09,3.8-.25.25l.25-.25Z"/>
                <path class="cls-35" d="M63.3,189.2c1.83,2.93-.32,3.48-.25.25l.25-.25Z"/>
                <path class="cls-35" d="M61.8,185.2c.06-.04.82.51.5,1-.77,1.2-1.14-.55-.5-1Z"/>
              </g>
            </g>
          </g>
          <path class="cls-26" d="M188.54,280.19c-4.49,5.29-17.35,5.77-24.5,7-8.47,1.46-20.22,2.2-21.25,2.5-.7.21-.37.99-.75,2-.97-.12.02-1.91-1.25-2.5-1.06-.5-12.45-.53-23.25-3,.51-2.3,9.15.38,12.25.5,18.32.74,28.99-8.72,32.5-9,.13-.01,2.37,1,2.5,1,3.03-.11,22.39-.38,23.5,0,.44.15.21,1.08.25,1.5Z"/>
          <path class="cls-2" d="M117.55,286.19c10.79,2.47,22.19,2.5,23.25,3,1.27.59.28,2.38,1.25,2.5-.15.41.4,2.09-1,4-4.54,1.48-16.26-2.45-18.5-1q-7.12-2.25-14.25-4.5c-.84-.01.14-3.96.75-6.5,2.69.87,5.76,1.87,8.5,2.5Z"/>
          <g>
            <path class="cls-5" d="M233.03,250.19c3.81,1.61,13.01,3.04,12.5,6-1.42-.57-2.6-1.45-4-2-8.01-3.16-7.11-1.25-12.75-2-4.25-.57-9.12-2.51-13.5-2-1.46.17-14.89,6.6-28.5,6,5.77,15.68,5.87,13.59,20.75,17.5-2.74.11-14.52-.21-15.25,0-.77.22-2.07,4.11-2.75,5-.36.47-.5.91-1,1.5-.04-.42.19-1.35-.25-1.5-1.11-.38-20.47-.11-23.5,0-.13,0-2.37-1.01-2.5-1-3.51.28-14.17,9.74-32.5,9-3.1-.12-11.73-2.8-12.25-.5-2.74-.63-5.81-1.63-8.5-2.5,2.51-10.47,15.75-33.08,20.5-44.99,10.41-.54,7.74,2.3,9.25,3,1.08.51,1.19-.52,1.25-.5,6.89,2.18,14.44,2.58,21.5,4,1.53.31,6.91,3.05,8.25,2.5.75-.31,8.05-12.65,8.25-14,12.54-4.81,9.14,1.11,13.25,3.5,2.89,1.68,24.87,5.49,37.5,10.5.63.25,2.31,2.69,3,3,.58.26.89-.65,1.25-.5Z"/>
            <path class="cls-35" d="M148.29,257.69c-1,7.56,3.32,13.66,11,9,4.57-2.77,1.85-18.74,3.75,1.75-10.58,3.98-18.56,2.3-14.75-10.75Z"/>
            <path class="cls-35" d="M175.54,268.19c-.62-1.84-6.57-19.97-4.25-20,1.16-.01,3.94,17.84,4.25,20Z"/>
            <path class="cls-35" d="M175.54,268.19c.33.96,1.64,2.21.75,3.5-1.03-1.3-.59-2.4-.75-3.5Z"/>
          </g>
          <path class="cls-5" d="M143.04,157.71c6.09,13.78,12.01,39.13,14,54.49-2.2-4.94-2.22-15.86-14-37.25-1.19-2.17-4.23-5.82-5-7.25,3.67-2.23,3.94-6.28,2-10l2-3c.3.56.69,2.3,1,3Z"/>
          <path class="cls-35" d="M142.04,154.71l-2,3c-.34-.65-10.74-11.46-11-7.5-1.78-3.99-2.89-8.43-6-11.75l.75-.75c5.99,3.48,15.14,11.12,18.25,17Z"/>
          <path class="cls-26" d="M140.04,157.71c1.94,3.72,1.67,7.77-2,10-3.11-5.81-6.25-10.88-9-17-.06-.14.06-.36,0-.5.25-3.96,10.66,6.85,11,7.5Z"/>
          <path class="cls-35" d="M141.04,295.69l.5,1c-.64-.04-.49.42-.5,1-6.78.63-13.43-.42-20-1-.16-1,.86-1.58,1.5-2,2.24-1.45,13.96,2.48,18.5,1Z"/>
          <g>
            <path class="cls-5" d="M102.55,294.19c-2.59,12.34,2.7.76,3.25.5.69-.33,8.65,1.41,15.25,2,6.56.58,13.21,1.63,20,1-.06,3.44-3.07,17.27-4,23.5-.51,3.41-.98,7.04-1,10.5-.42,1.34-.68,2.64-1,4v.5c-16.23-.27-32.51.34-48.74-.5-32.49-1.67-32.48,1.21-32.75-26.25,0-.17,1.43-.46,1.5-1,.06-.49-1.97-1.38-2-1.5-.87-3.16-1.44-16.71-2-21.75q25.75,4.5,51.49,9Z"/>
            <g>
              <path class="cls-21" d="M103.55,305.19h-32.5c-.08-.22-1.8.79-.75-4h33c.41.29.32,3.28.25,4Z"/>
              <path class="cls-35" d="M103.55,305.19c-.62,6.5-9.13,1.3-4.5,7.25-6.73-6.32-24.51-.25-28-5.5-.17-.26.16-1.31,0-1.75h32.5Z"/>
              <path class="cls-35" d="M98.8,313.19l.75,4.25c-39.51,2.44-50.05-1.13-1.75-.25l1-4Z"/>
              <path class="cls-35" d="M105.3,319.68c35.76-.44,37.54,2.51.5,1l-.5-1Z"/>
              <path class="cls-35" d="M106.8,309.19l27.25.75q-13.37.12-26.75.25l-.5-1Z"/>
              <path class="cls-35" d="M55.8,308.19c18.16-.4,18.19,1.48,0,1v-1Z"/>
              <path class="cls-35" d="M67.8,311.69l.75.25c-7.93,6.25-10.22,4.54-.75-.25Z"/>
            </g>
          </g>
          <path class="cls-35" d="M68.55,263.69c-.13-.07-.37.07-.5,0-9.7-6.74-18.85-27.15-20.5-38.25-.73-4.91.11-9.45,0-14.25,4.38,15.52,10.04,30.7,18,44.74,1.95,3.44,5.08,3.17,3,7.75Z"/>
          <path class="cls-35" d="M104.05,289.19c-4.41.24-8.68-.96-13-1.5-8.9-3.77-15.15-11.65-23-17l1-.5c.68.81,15.88,9.21,18.25,10.5,2.49,1.36,16.5,7.46,16.75,8.5Z"/>
          <g>
            <g>
              <path class="cls-11" d="M129.05,150.71c2.75,6.11,5.89,11.19,9,17,.77,1.43,3.81,5.08,5,7.25,11.77,21.39,11.8,32.3,14,37.25.84,1.88.08,2.82,1.75,2.5l1.25-4.5c.25,3.14,1.04,10.14,1,11-.02.31-.29-1.47-1,5.75-.41,4.1-3.09,7.05-1.5,11.25,1.41,3.74,4.67,3.44,3,7-7.05-1.42-14.61-1.82-21.5-4-1.88-.15-.73-8.89-1-14.75-.34-7.37-1.18-15.38-2-22.75-.34-3.03-.08-9.19-2-10.75,1.55-2.2-1.9-8.51-2-9-.14-.7.64-.8.5-1.5-.89-4.41-2.43-8.86-3.5-13.25,1.76-3.82-4.65-16.72-2-19.25l1,.75Z"/>
              <path class="cls-9" d="M145.29,210.7h2c9.21,10.11-15.42,11.21-2,0Z"/>
            </g>
            <g>
              <path class="cls-25" d="M161.04,337.18c-8.57.02-17.18.14-25.75,0-.41,0-.2-1-.25-1v-.5c.92,1.59,4,.95,7.5,1,2.1.03,4.43.15,6.5,0,4.27-.32,8.6-1.95,13-2-.3.72.55,2.15-1,2.5Z"/>
              <path class="cls-11" d="M162.04,334.68c-4.4.05-8.73,1.68-13,2-1.86-3.7,4.15-7.82.5-8,12.38-12.89,12.13-21.72-2-2-2.61-2.03-9.04-6.46-9.75-1l-.75-4.5c.93-6.23,3.94-20.05,4-23.5.01-.58-.14-1.04.5-1,7.08-.21,14.13-1.73,21-3.5l-.5,41.49Z"/>
              <path class="cls-28" d="M164.04,287.19c.29,1.96-.41,2.61-.5,3-.18.81-.14,2.48-1,3-6.86,1.76-13.91,3.29-21,3.5l-.5-1c1.4-1.91.85-3.59,1-4,.38-1.01.05-1.79.75-2,1.03-.3,12.78-1.04,21.25-2.5Z"/>
              <path class="cls-11" d="M142.54,336.68c-3.5-.05-6.57.59-7.5-1,.32-1.35.58-2.66,1-4,2.87-9.22.74,4.92,6.75-2,.41.2.72,6.18-.25,7Z"/>
              <g>
                <path class="cls-28" d="M147.54,326.68c.11.09.57,2.04,2,2,3.65.18-2.36,4.3-.5,8-2.07.15-4.4.03-6.5,0,.97-.82.66-6.8.25-7-6.01,6.92-3.88-7.22-6.75,2,.01-3.46.49-7.09,1-10.5l.75,4.5c.71-5.46,7.14-1.03,9.75,1Z"/>
                <path class="cls-28" d="M149.54,328.68c-1.43.04-1.89-1.91-2-2,14.13-19.72,14.38-10.89,2,2Z"/>
              </g>
            </g>
          </g>
        </g>
      </g>
    </g>
  </g>
</svg>